<?xml version="1.0" encoding="UTF-8" standalone="no"?>
<!-- Created with Inkscape (http://www.inkscape.org/) -->

<svg
   width="1800mm"
   height="370mm"
   viewBox="0 0 1800 370"
   version="1.1"
   id="svg1"
   xml:space="preserve"
   xmlns="http://www.w3.org/2000/svg"
   xmlns:svg="http://www.w3.org/2000/svg"><defs
     id="defs1" /><g
     id="layer1"><g
       id="g3"
       transform="translate(177.12758,496.4838)"><rect
         style="fill:#3c4253;fill-opacity:1;stroke:#3c4253;stroke-width:5;stroke-linecap:round;stroke-linejoin:round;stroke-dasharray:none;stroke-opacity:1"
         id="rect12-1-9-1-5-2"
         width="495"
         height="365"
         x="-166.83333"
         y="-493.9838"
         ry="14.89376" /><rect
         style="fill:#cad4f0;fill-opacity:1;stroke:#3c4253;stroke-width:0.999999;stroke-linecap:round;stroke-linejoin:round;stroke-dasharray:none;stroke-opacity:1"
         id="rect28-4"
         width="481.43378"
         height="294.10367"
         x="-160.30049"
         y="-432.48682"
         ry="13.574018" /><path
         id="rect28-2-0"
         style="fill:#334065;fill-opacity:0.20118;stroke:none;stroke-width:0.999999;stroke-linecap:round;stroke-linejoin:round;stroke-dasharray:none;stroke-opacity:1"
         d="m -132.15652,-387.7319 -28.14369,16.27177 v 219.50329 c 0,7.52003 6.04548,13.57417 13.55474,13.57417 h 253.85301 l 71.4886,-41.33257 -96.86974,-55.62621 167.34437,-96.75511 z" /><g
         id="g15-9-3-81-6"
         transform="matrix(-1.6876032,0,0,1.6900194,-46.59707,-1501.3313)"
         style="fill:#c9defe;fill-opacity:0.600953;stroke-width:0.592131"><g
           id="g14-0-0-2-2"
           transform="matrix(0.97439039,0,0,0.97439039,-0.62797945,11.03794)"
           style="fill:#c9defe;fill-opacity:0.600953;stroke-width:0.607696"><path
             style="fill:#c9defe;fill-opacity:0.600953;stroke:none;stroke-width:3.03847;stroke-linecap:round;stroke-linejoin:round;stroke-dasharray:none;stroke-opacity:1"
             id="path14-9-4-8-9"
             d="m -5.6140394,619.43988 a 9.453599,9.453599 0 0 1 -9.4458176,9.4536 9.453599,9.453599 0 0 1 -9.461368,-9.43804 9.453599,9.453599 0 0 1 9.430242,-9.46913 9.453599,9.453599 0 0 1 9.4768923,9.42244" /><path
             style="fill:#c9defe;fill-opacity:0.600953;stroke:none;stroke-width:3.03847;stroke-linecap:round;stroke-linejoin:round;stroke-dasharray:none;stroke-opacity:1"
             id="path14-4-1-4-9-9"
             d="m 27.232129,619.43988 a 9.453599,9.453599 0 0 1 -9.445817,9.4536 9.453599,9.453599 0 0 1 -9.461368,-9.43804 9.453599,9.453599 0 0 1 9.430242,-9.46913 9.453599,9.453599 0 0 1 9.476892,9.42244" /><path
             style="fill:#c9defe;fill-opacity:0.600953;stroke:none;stroke-width:3.03847;stroke-linecap:round;stroke-linejoin:round;stroke-dasharray:none;stroke-opacity:1"
             id="path14-6-7-4-3-0"
             d="m 60.078294,619.43988 a 9.453599,9.453599 0 0 1 -9.445818,9.4536 9.453599,9.453599 0 0 1 -9.461367,-9.43804 9.453599,9.453599 0 0 1 9.430241,-9.46913 9.453599,9.453599 0 0 1 9.476893,9.42244" /></g><rect
           style="fill:#c9defe;fill-opacity:0.600953;stroke:none;stroke-width:2.96066;stroke-linecap:round;stroke-linejoin:round;stroke-dasharray:none;stroke-opacity:1"
           id="rect14-7-4-68-8"
           width="127.76682"
           height="18.422993"
           x="-208.43671"
           y="605.40271"
           ry="9.2114964" /></g><g
         id="g1"
         style="display:inline"
         transform="translate(-188.6615,-614.59313)"><path
           style="fill:#ff6d42;fill-opacity:1;stroke:none;stroke-width:2.35035;stroke-linecap:round;stroke-linejoin:round;stroke-dasharray:none;stroke-opacity:1"
           d="m 95.510829,155.64056 c 0,0 -25.068896,0.25202 -37.599543,0 -9.227717,-0.18559 -25.614816,-0.94803 -32.456816,-1.27846 -1.732812,-0.0837 -2.147295,0.84658 -0.865557,2.01609 5.001097,4.56319 17.966376,15.2981 35.972251,22.18019 17.117639,6.54259 35.0929,6.15916 35.0929,6.15916 z"
           id="path19-5-2-1"
           transform="matrix(-2.1258201,0,0,2.1288638,537.74111,-84.555396)" /><path
           id="path19-4-6-1-3"
           style="fill:#00324d;fill-opacity:0.299152;stroke:none;stroke-width:5;stroke-linecap:round;stroke-linejoin:round;stroke-dasharray:none;stroke-opacity:1"
           d="m 487.03458,245.71913 c 0.0157,0.72812 -0.47322,1.63575 -1.56547,2.63376 -10.63143,9.71442 -38.19305,32.56725 -76.4703,47.21827 -36.38903,13.92829 -74.60129,13.11206 -74.60129,13.11206 l 0.15176,-30.85325 c 13.71019,1.61869 40.91,2.84375 74.71361,-5.86744 22.10978,-5.69767 58.65346,-19.06205 77.77167,-26.2434 z" /><path
           style="fill:#b14544;fill-opacity:1;stroke:none;stroke-width:2.35035;stroke-linecap:round;stroke-linejoin:round;stroke-dasharray:none;stroke-opacity:1"
           d="m 230.08898,153.08642 v 4.739 c 0,1.52207 -1.20806,3.0077 -2.69125,3.34944 -12.21365,2.81415 -61.98627,15.62953 -65.47471,38.29935 -2.28446,14.8457 13.66833,24.48678 30.61447,33.06473 -37.68785,9.6904 -71.80744,12.49974 -102.863035,0 7.845112,-4.29761 29.472965,-15.847 27.886435,-29.21601 -0.73368,-6.1824 -12.08823,-10.68757 -17.803633,-12.57592 -1.772817,-0.58573 -3.234968,-2.49558 -3.234968,-4.36309 l 0,-33.29754 z"
           id="path17-9-0-1"
           transform="matrix(-2.1258201,0,0,2.1288638,547.48493,-86.994882)" /><path
           id="path17-9-0-1-1"
           style="fill:#00324d;fill-opacity:0.298039;stroke:none;stroke-width:5;stroke-linecap:round;stroke-linejoin:round;stroke-dasharray:none;stroke-opacity:1"
           d="m 64.078,256.12389 0.002,10e-4 c 25.966454,5.99161 131.76982,33.27309 139.18548,81.53319 1.65446,10.76696 -1.26605,20.22505 -7.16138,28.76871 l 0.0587,0.0488 c 0,0 34.9521,-33.36595 19.84489,-57.73911 C 184.39851,257.74005 64.077981,256.12407 64.077981,256.12407 Z" /><rect
           style="fill:#e35d47;fill-opacity:1;stroke:none;stroke-width:5;stroke-linecap:round;stroke-linejoin:round;stroke-dasharray:none;stroke-opacity:1"
           id="rect22-5-1"
           width="239.67839"
           height="30.150932"
           x="-366.90149"
           y="406.26093"
           ry="3.9640989"
           transform="scale(-1,1)" /><rect
           style="fill:#ff6d42;fill-opacity:1;stroke:none;stroke-width:5;stroke-linecap:round;stroke-linejoin:round;stroke-dasharray:none;stroke-opacity:1"
           id="rect17-2-1-0"
           width="293.06158"
           height="15.093299"
           x="-346.55286"
           y="226.86118"
           ry="3.0186598"
           transform="scale(-1,1)" /><g
           id="g14-0-0-8-9-9-5"
           transform="matrix(-0.42311803,0,0,0.42311803,557.86854,-1423.2491)"
           style="fill:#050506;fill-opacity:0.928406;stroke-width:2.3634" /><g
           id="g14-0-0-2-2-9"
           transform="matrix(-0.42311922,0,0,0.42311922,142.63069,127.13641)"
           style="fill:#c9defe;fill-opacity:1;stroke-width:2.3634" /></g><path
         id="text2-3-3"
         style="font-size:78.1685px;font-family:'Zen Dots';-inkscape-font-specification:'Zen Dots, Normal';white-space:pre;fill:#a5acb9;stroke-width:0.426448;stroke-linecap:round;stroke-linejoin:round"
         d="m 2461.4717,686.46109 v 55.89063 h 61.2843 v -10.16208 h -48.7772 v -13.05403 h 44.2432 v -10.16185 h -44.2432 v -12.3506 h 48.7772 v -10.16207 z m 304.2319,0.15646 v 8.83301 h 11.491 v -8.83301 z m 87.4706,3.12666 v 12.3506 h -11.6472 v 8.98947 h 11.6472 v 18.91684 c 0,3.69997 1.0683,6.6963 3.2049,8.98924 2.1366,2.24083 5.4718,3.36136 10.0056,3.36136 h 17.0408 v -8.98947 h -14.2269 c -3.1267,0 -4.69,-1.58937 -4.69,-4.76822 v -17.50975 h 16.7281 v -8.98947 h -16.7281 v -12.3506 z m -237.1633,11.95988 c -4.5859,0 -8.1035,1.0944 -10.5528,3.28312 -2.3971,2.13661 -3.5958,5.21108 -3.5958,9.22372 0,3.96054 1.1987,7.00911 3.5958,9.14571 2.3972,2.0845 5.9148,3.12688 10.5528,3.12688 h 24.7792 c 2.1887,0 3.2831,1.19844 3.2831,3.59561 0,2.44928 -1.0944,3.67406 -3.2831,3.67406 h -38.3024 v 8.98925 h 40.3349 c 4.0127,0 7.1133,-1.1203 9.302,-3.36113 2.1887,-2.29294 3.2831,-5.47189 3.2831,-9.53666 0,-4.01264 -1.0944,-7.06122 -3.2831,-9.14571 -2.1366,-2.13661 -5.2373,-3.20489 -9.302,-3.20489 h -26.2645 c -0.9902,0 -1.7979,-0.31256 -2.4232,-0.93791 -0.6254,-0.62535 -0.9382,-1.48533 -0.9382,-2.57969 0,-2.18872 1.1205,-3.28312 3.3614,-3.28312 h 35.0975 v -8.98924 z m 66.6777,0 c -6.9831,0 -12.4288,1.74564 -16.3372,5.23717 -3.9084,3.43941 -5.8626,8.5464 -5.8626,15.32101 0,6.72249 1.9542,11.82948 5.8626,15.32101 3.9084,3.43942 9.3541,5.15916 16.3372,5.15916 h 26.9682 v -8.98925 h -26.9682 c -3.3873,0 -5.993,-0.93812 -7.8169,-2.81416 -1.7719,-1.87604 -2.6577,-4.76833 -2.6577,-8.67676 0,-3.96054 0.8858,-6.87872 2.6577,-8.75477 1.8239,-1.87604 4.4296,-2.81417 7.8169,-2.81417 h 26.1865 v -8.98924 z m 227.2359,0 c -6.9831,0 -12.4288,1.74564 -16.3372,5.23717 -3.9084,3.43941 -5.8626,8.5464 -5.8626,15.32101 0,6.72249 1.9542,11.82948 5.8626,15.32101 3.9084,3.43942 9.3541,5.15916 16.3372,5.15916 h 31.6584 v -8.98925 h -31.6584 c -5.576,0 -8.911,-2.42322 -10.0054,-7.26967 h 29.5477 c 9.4323,0 14.1484,-4.09095 14.1484,-12.27259 0,-4.01264 -1.2246,-7.08711 -3.6739,-9.22372 -2.3971,-2.18872 -5.8886,-3.28312 -10.4745,-3.28312 z m -379.7426,0.39072 v 40.25691 h 11.3345 v -31.26744 h 15.7117 v 31.26744 h 11.3344 v -31.26744 h 10.8656 c 3.2309,0 4.8464,1.58936 4.8464,4.76821 v 26.49923 h 11.3345 v -27.90631 c 0,-3.69998 -1.0683,-6.67019 -3.2049,-8.91101 -2.1366,-2.29295 -5.4979,-3.43959 -10.0839,-3.43959 z m 185.3374,0 v 40.25691 h 11.4907 v -31.18921 h 16.3374 c 3.1268,0 4.69,1.56324 4.69,4.68998 v 6.95697 h 11.4907 v -8.36405 c 0,-3.69998 -1.0683,-6.67019 -3.2049,-8.91101 -2.1366,-2.29295 -5.4716,-3.43959 -10.0054,-3.43959 z m 50.2623,0 v 40.25691 h 11.3345 v -40.25691 z m 19.9332,0 v 57.84468 h 11.3345 v -17.58777 h 17.588 c 6.983,0 12.4287,-1.71975 16.3371,-5.15916 3.9084,-3.43941 5.8626,-8.44215 5.8626,-15.0083 0,-6.51404 -1.9542,-11.49087 -5.8626,-14.93029 -3.9084,-3.43942 -9.3541,-5.15916 -16.3371,-5.15916 z m 164.9356,0 v 40.25691 h 11.3344 v -31.26744 h 20.9491 c 3.1268,0 4.6902,1.56324 4.6902,4.68998 v 26.57746 h 11.3345 v -27.90631 c 0,-3.69998 -1.0683,-6.67019 -3.2049,-8.91101 -2.0845,-2.29295 -5.4197,-3.43959 -10.0056,-3.43959 z m -40.7259,8.59852 h 18.9951 c 2.2408,0 3.3611,1.0944 3.3611,3.28312 0,1.09436 -0.3126,1.95434 -0.9379,2.57969 -0.5733,0.62535 -1.381,0.93791 -2.4232,0.93791 h -28.9225 c 1.2507,-4.53377 4.5598,-6.80072 9.9274,-6.80072 z m -112.8752,0.39095 h 17.588 c 3.3873,0 5.9666,0.9379 7.7384,2.81394 1.8239,1.82394 2.7359,4.58606 2.7359,8.28604 0,3.75208 -0.912,6.56601 -2.7359,8.44206 -1.7718,1.82392 -4.3511,2.73593 -7.7384,2.73593 h -17.588 z m -212.9703,51.15546 v 55.89041 h 12.5071 v -20.08923 h 41.1166 v -10.16185 h -41.1166 V 772.4016 h 47.2136 v -10.16186 z m 84.6564,15.24278 c -6.983,0 -12.4287,1.74587 -16.3371,5.23739 -3.9084,3.43942 -5.8626,8.54641 -5.8626,15.32101 0,6.72249 1.9542,11.82949 5.8626,15.32102 3.9084,3.43942 9.3541,5.15915 16.3371,5.15915 h 14.4611 c 6.9831,0 12.429,-1.71973 16.3374,-5.15915 3.9085,-3.49153 5.8626,-8.59853 5.8626,-15.32102 0,-6.7746 -1.9541,-11.88159 -5.8626,-15.32101 -3.9084,-3.49152 -9.3543,-5.23739 -16.3374,-5.23739 z m 173.925,0 c -6.9831,0 -12.4288,1.74587 -16.3372,5.23739 -3.9084,3.43942 -5.8628,8.54641 -5.8628,15.32101 0,6.72249 1.9544,11.82949 5.8628,15.32102 3.9084,3.43942 9.3541,5.15915 16.3372,5.15915 h 31.6582 v -8.98946 h -31.6582 c -5.576,0 -8.9112,-2.42323 -10.0056,-7.26968 h 29.5476 c 9.4324,0 14.1487,-4.09072 14.1487,-12.27236 0,-4.01265 -1.2246,-7.08734 -3.6739,-9.22395 -2.3971,-2.18872 -5.8888,-3.28312 -10.4748,-3.28312 z m -130.2287,0.39094 v 40.25669 h 11.4907 v -31.18921 h 16.3371 c 3.1268,0 4.6903,1.56347 4.6903,4.69021 v 6.95696 h 11.4907 v -8.36405 c 0,-3.69998 -1.0683,-6.6704 -3.2049,-8.91123 -2.1366,-2.29295 -5.4718,-3.43937 -10.0056,-3.43937 z m 72.4623,0 c -6.9831,0 -12.429,1.71975 -16.3374,5.15916 -3.9084,3.43942 -5.8626,8.44215 -5.8626,15.0083 0,6.51404 1.9542,11.49066 5.8626,14.93007 3.9084,3.43942 9.3543,5.15916 16.3374,5.15916 h 17.197 v 3.83031 c 0,3.17885 -1.5635,4.76822 -4.6902,4.76822 h -23.6068 v 8.98946 h 26.421 c 4.5337,0 7.8689,-1.14642 10.0056,-3.43936 2.1366,-2.24083 3.2049,-5.21126 3.2049,-8.91124 v -45.49408 z m -116.1586,8.59853 h 14.4611 c 3.3874,0 5.9671,0.9379 7.7389,2.81394 1.8239,1.87605 2.7359,4.79445 2.7359,8.75499 0,3.90843 -0.912,6.80072 -2.7359,8.67676 -1.7718,1.87605 -4.3515,2.81395 -7.7389,2.81395 h -14.4611 c -3.3873,0 -5.9929,-0.9379 -7.8168,-2.81395 -1.7718,-1.87604 -2.6577,-4.76833 -2.6577,-8.67676 0,-3.96054 0.8859,-6.87894 2.6577,-8.75499 1.8239,-1.87604 4.4295,-2.81394 7.8168,-2.81394 z m 173.925,0 h 18.9949 c 2.2408,0 3.3613,1.0944 3.3613,3.28312 0,1.09435 -0.3126,1.95412 -0.9379,2.57947 -0.5733,0.62535 -1.3812,0.93813 -2.4234,0.93813 h -28.9223 c 1.2507,-4.53378 4.5598,-6.80072 9.9274,-6.80072 z m -57.7664,0.39072 h 17.197 v 22.2782 h -17.197 c -3.3874,0 -5.993,-0.91201 -7.8169,-2.73594 -1.7718,-1.87605 -2.6577,-4.66407 -2.6577,-8.36405 0,-3.75208 0.8859,-6.54011 2.6577,-8.36404 1.8239,-1.87605 4.4295,-2.81417 7.8169,-2.81417 z"
         transform="matrix(2.3449501,0,0,2.3449501,-5417.3301,-2096.201)" /></g></g></svg>
