<?xml version="1.0" encoding="UTF-8" standalone="no"?>
<!-- Created with Inkscape (http://www.inkscape.org/) -->

<svg
   width="128mm"
   height="128mm"
   viewBox="0 0 128 128"
   version="1.1"
   id="svg1"
   xml:space="preserve"
   xmlns="http://www.w3.org/2000/svg"
   xmlns:svg="http://www.w3.org/2000/svg"><defs
     id="defs1" /><g
     id="layer1"><path
       id="path30-6-3-0"
       style="fill:#0b0f15;fill-opacity:1;stroke:none;stroke-width:0.999999;stroke-linecap:round;stroke-linejoin:round;stroke-dasharray:none;stroke-opacity:1"
       d="M 63.851302,4.0000891 A 59.999961,59.999961 0 0 0 4.0000817,64.099205 59.999961,59.999961 0 0 0 64.048502,124.00001 59.999961,59.999961 0 0 0 124,64.000036 L 123.999,63.80292 A 59.999961,59.999961 0 0 0 63.851422,4.0001541 Z m 16.23496,36.6785259 a 4.2719932,4.2719932 0 0 1 4.27172,4.271721 v 1.625973 c 16.311738,0.175312 19.965448,-0.01308 33.914488,-0.818057 0.61836,-0.03554 0.90815,0.225158 0.82595,0.624233 -6.63562,12.484164 -24.685408,17.305501 -35.792878,18.411949 0,0.694008 -0.1535,2.505346 -1.70148,3.116735 -3.00601,1.187149 -8.97784,4.020092 -9.36372,7.906781 -0.80491,8.10754 10.86549,17.838392 16.17299,17.838392 0.54257,0 0.9792,0.522229 0.9792,1.170752 v 5.086398 a 2.6484357,2.6484357 0 0 1 -2.64911,2.647968 h -54.00088 a 2.6484357,2.6484357 0 0 1 -2.64797,-2.647968 v -5.085264 c 0,-0.500162 0.33248,-1.171886 0.97919,-1.171886 5.33173,0 19.23886,-10.600674 17.83502,-20.258763 -2.14801,-14.777806 -32.63168,-17.60074 -34.4362,-18.178703 -1.04598,-0.335011 -2.62771,-0.310764 -2.62771,-2.105987 l 0.007,-8.161441 a 4.2751223,4.2751223 0 0 1 4.27508,-4.2717 z m -62.48456,3.603508 c -1.76925,-0.0044 -3.20596,1.425237 -3.2125,3.194491 v 0.0109 c -1.1e-4,1.769232 1.43313,3.20426 3.20236,3.205742 1.76926,0.0015 3.20583,-1.430862 3.20801,-3.200116 0.002,-1.769101 -1.42877,-3.205895 -3.19787,-3.210256 z m 11.13732,0 c -1.76925,-0.0044 -3.20709,1.425237 -3.21364,3.194491 v 0.0109 c -1.1e-4,1.769232 1.43313,3.20426 3.20237,3.205742 1.76925,0.0015 3.20583,-1.430862 3.20801,-3.200116 0.002,-1.769101 -1.42764,-3.205895 -3.19674,-3.210256 z m 11.13618,0 c -1.76925,-0.0044 -3.20709,1.425237 -3.21363,3.194491 v 0.0109 c -1.1e-4,1.769232 1.43313,3.20426 3.20236,3.205742 1.76925,0.0015 3.20583,-1.430862 3.20801,-3.200116 0.002,-1.769101 -1.42764,-3.205895 -3.19674,-3.210256 z m 14.49068,0.0011 c -1.77571,0 -3.20463,1.428922 -3.20463,3.20463 0,1.775708 1.42892,3.205742 3.20463,3.205742 h 22.78282 c 1.77571,0 3.20574,-1.430034 3.20574,-3.205742 0,-1.775708 -1.43003,-3.20463 -3.20574,-3.20463 z" /></g></svg>
