<?xml version="1.0" encoding="UTF-8" standalone="no"?>
<!-- Created with Inkscape (http://www.inkscape.org/) -->

<svg
   width="128mm"
   height="128mm"
   viewBox="0 0 128 128"
   version="1.1"
   id="svg1"
   xml:space="preserve"
   xmlns="http://www.w3.org/2000/svg"
   xmlns:svg="http://www.w3.org/2000/svg"><defs
     id="defs1" /><g
     id="layer1"><path
       style="fill:#e35d47;fill-opacity:1;stroke:none;stroke-width:1;stroke-linecap:round;stroke-linejoin:round;stroke-dasharray:none;stroke-opacity:1"
       id="path30"
       d="M 123.99996,64 A 60,60 0 0 1 64.049346,123.99998 60,60 0 0 1 4.0000393,64.098775 60,60 0 0 1 63.851795,4.0001829 60,60 0 0 1 123.99963,63.80245" /><path
       id="path19-5-5-3-2-9"
       style="fill:#0b0f15;fill-opacity:1;stroke:none;stroke-width:2.29304;stroke-linecap:round;stroke-linejoin:round;stroke-dasharray:none;stroke-opacity:1"
       d="m 328.50881,255.31842 -0.003,3.74277 c 0,0.82331 0.72539,0.81219 1.20509,0.96583 0.82757,0.26506 14.80774,1.55969 15.79284,8.33696 0.64382,4.42931 -5.73416,9.29091 -8.17935,9.29091 -0.29659,0 -0.44907,0.30805 -0.44907,0.53743 v 2.33196 a 1.2146028,1.2146028 45 0 0 1.2146,1.2146 h 24.76552 a 1.2146028,1.2146028 135 0 0 1.2146,-1.2146 v -2.33247 c 0,-0.29742 -0.20023,-0.53692 -0.44906,-0.53692 -2.43408,0 -7.78626,-4.46269 -7.41712,-8.1809 0.17697,-1.78248 2.91572,-3.08169 4.29431,-3.62613 0.70997,-0.28039 0.78031,-1.11109 0.78031,-1.42937 5.09401,-0.50743 13.37185,-2.71855 16.41502,-8.44393 0.0377,-0.18302 -0.0952,-0.30264 -0.37879,-0.28629 -6.39719,0.36928 -8.07282,0.45558 -15.55357,0.37517 l 0,-0.74553 a 1.9591848,1.9591848 44.999561 0 0 -1.95921,-1.95918 l -29.33291,4.5e-4 a 1.9606198,1.9606198 135.01966 0 0 -1.96058,1.95924 z m 2.63739,-0.30711 v 5.1e-4 c 0.81133,0.002 1.46789,0.66094 1.46657,1.47227 -0.001,0.8114 -0.65983,1.4683 -1.47123,1.46761 -0.81139,-6.8e-4 -1.46869,-0.65881 -1.46864,-1.4702 v -0.005 c 0.003,-0.8114 0.6619,-1.46707 1.4733,-1.46502 z m 5.10769,0 v 5.1e-4 c 0.81133,0.002 1.46738,0.66094 1.46606,1.47227 -10e-4,0.8114 -0.65982,1.4683 -1.47122,1.46761 -0.81139,-6.8e-4 -1.4687,-0.65881 -1.46865,-1.4702 v -0.005 c 0.003,-0.8114 0.66241,-1.46707 1.47381,-1.46502 z m 5.10719,0 v 5.1e-4 c 0.81133,0.002 1.46738,0.66094 1.46606,1.47227 -10e-4,0.8114 -0.65983,1.4683 -1.47123,1.46761 -0.81139,-6.8e-4 -1.4687,-0.65881 -1.46865,-1.4702 v -0.005 c 0.003,-0.8114 0.66242,-1.46707 1.47382,-1.46502 z m 6.64559,5.1e-4 h 10.44845 c 0.81436,0 1.4702,0.65532 1.4702,1.46968 0,0.81436 -0.65584,1.4702 -1.4702,1.4702 h -10.44845 c -0.81436,0 -1.46968,-0.65584 -1.46968,-1.4702 0,-0.81436 0.65532,-1.46968 1.46968,-1.46968 z"
       transform="matrix(2.1804967,0,0,2.1804967,-704.46151,-511.76924)" /></g></svg>
