<?xml version="1.0" encoding="UTF-8" standalone="no"?>
<!-- Created with Inkscape (http://www.inkscape.org/) -->

<svg
   width="128mm"
   height="128mm"
   viewBox="0 0 128 128"
   version="1.1"
   id="svg1"
   xml:space="preserve"
   xmlns="http://www.w3.org/2000/svg"
   xmlns:svg="http://www.w3.org/2000/svg"><defs
     id="defs1" /><g
     id="layer1"><path
       id="path30-6-3-0-8"
       style="fill:#c9d3f0;fill-opacity:1;stroke:none;stroke-width:0.999999;stroke-linecap:round;stroke-linejoin:round;stroke-dasharray:none;stroke-opacity:1"
       d="M 63.851299,4.000089 A 59.999961,59.999961 0 0 0 4.0000819,64.099206 59.999961,59.999961 0 0 0 64.048503,124.00001 59.999961,59.999961 0 0 0 124,64.000037 L 123.999,63.80292 A 59.999961,59.999961 0 0 0 63.851299,4.000154 Z m 16.234962,36.678526 a 4.2719932,4.2719932 0 0 1 4.27172,4.271721 v 1.625973 c 16.311739,0.175312 19.965449,-0.01308 33.914489,-0.818056 0.61837,-0.03554 0.90815,0.225158 0.82595,0.624232 -6.63562,12.484164 -24.685409,17.305501 -35.792869,18.41195 0,0.694008 -0.15351,2.505345 -1.70149,3.116734 -3.00601,1.187149 -8.97784,4.020092 -9.36372,7.906781 -0.80491,8.107537 10.86549,17.838397 16.17299,17.838397 0.54258,0 0.9792,0.52222 0.9792,1.17075 v 5.08639 a 2.6484357,2.6484357 0 0 1 -2.64911,2.647983 H 32.742543 a 2.6484357,2.6484357 0 0 1 -2.647972,-2.647983 v -5.08526 c 0,-0.50016 0.332482,-1.17188 0.979195,-1.17188 5.331726,0 19.238859,-10.600678 17.835013,-20.258768 C 46.760773,58.619774 16.2771,55.796839 14.472587,55.218877 13.426603,54.883866 11.844872,54.908113 11.844872,53.112889 l 0.0065,-8.161441 a 4.2751223,4.2751223 0 0 1 4.275079,-4.2717 z m -62.484554,3.603508 c -1.769254,-0.0044 -3.205961,1.425237 -3.212502,3.194491 v 0.0109 c -1.09e-4,1.769233 1.43313,3.20426 3.202363,3.205743 1.769253,0.0015 3.205829,-1.430863 3.20801,-3.200117 0.0022,-1.769101 -1.42877,-3.205895 -3.197871,-3.210256 z m 11.137316,0 c -1.769254,-0.0044 -3.207095,1.425237 -3.213636,3.194491 v 0.0109 c -1.09e-4,1.769233 1.43313,3.20426 3.202363,3.205743 1.769253,0.0015 3.205829,-1.430863 3.20801,-3.200117 0.0022,-1.769101 -1.427636,-3.205895 -3.196737,-3.210256 z m 11.136182,0 c -1.769254,-0.0044 -3.207095,1.425237 -3.213636,3.194491 v 0.0109 c -1.09e-4,1.769233 1.43313,3.20426 3.202362,3.205743 1.769254,0.0015 3.20583,-1.430863 3.208011,-3.200117 0.0022,-1.769101 -1.427636,-3.205895 -3.196737,-3.210256 z m 14.490677,0.0011 c -1.775708,0 -3.20463,1.428922 -3.20463,3.20463 0,1.775708 1.428922,3.205742 3.20463,3.205742 h 22.782819 c 1.77571,0 3.20574,-1.430034 3.20574,-3.205742 0,-1.775708 -1.43003,-3.20463 -3.20574,-3.20463 z" /></g></svg>
