<?xml version="1.0" encoding="UTF-8" standalone="no"?>
<!-- Created with Inkscape (http://www.inkscape.org/) -->

<svg
   width="128mm"
   height="128mm"
   viewBox="0 0 128 128"
   version="1.1"
   id="svg1"
   xml:space="preserve"
   xmlns="http://www.w3.org/2000/svg"
   xmlns:svg="http://www.w3.org/2000/svg"><defs
     id="defs1" /><g
     id="layer1"><path
       id="path30-6-3-0-0"
       style="fill:#e35d47;fill-opacity:1;stroke:none;stroke-width:0.999999;stroke-linecap:round;stroke-linejoin:round;stroke-dasharray:none;stroke-opacity:1"
       d="M 63.851296,4.000089 A 59.999961,59.999961 0 0 0 4.0000801,64.099206 59.999961,59.999961 0 0 0 64.0485,124.00001 59.999961,59.999961 0 0 0 124,64.000037 L 123.999,63.80292 A 59.999961,59.999961 0 0 0 63.851296,4.000155 Z m 16.234965,36.678526 a 4.2719932,4.2719932 0 0 1 4.271721,4.271721 v 1.625974 c 16.311738,0.175312 19.965438,-0.01308 33.914488,-0.818057 0.61836,-0.03554 0.90815,0.225158 0.82595,0.624232 -6.63562,12.484165 -24.685408,17.305501 -35.792876,18.41195 0,0.694008 -0.153507,2.505346 -1.701484,3.116735 -3.006009,1.187148 -8.97784,4.020088 -9.363723,7.906778 -0.804908,8.10754 10.865496,17.8384 16.172995,17.8384 0.54257,0 0.9792,0.52222 0.9792,1.17075 v 5.08639 a 2.6484357,2.6484357 0 0 1 -2.64911,2.647982 H 32.74254 a 2.6484357,2.6484357 0 0 1 -2.647971,-2.647982 v -5.08526 c 0,-0.50016 0.332482,-1.17188 0.979195,-1.17188 5.331725,0 19.238859,-10.60068 17.835012,-20.25877 C 46.76077,58.619774 16.277097,55.796839 14.472585,55.218877 13.426601,54.883866 11.84487,54.908113 11.84487,53.11289 l 0.0065,-8.161442 a 4.2751223,4.2751223 0 0 1 4.275079,-4.271699 z m -62.484557,3.603508 c -1.769254,-0.0044 -3.20596,1.425238 -3.212502,3.194491 v 0.0109 c -1.09e-4,1.769232 1.433131,3.20426 3.202363,3.205742 1.769254,0.0015 3.20583,-1.430863 3.20801,-3.200116 0.0022,-1.769102 -1.428769,-3.205895 -3.197871,-3.210256 z m 11.137316,0 c -1.769254,-0.0044 -3.207094,1.425238 -3.213636,3.194491 v 0.0109 c -1.09e-4,1.769232 1.433131,3.20426 3.202363,3.205742 1.769254,0.0015 3.20583,-1.430863 3.20801,-3.200116 0.0022,-1.769102 -1.427636,-3.205895 -3.196737,-3.210256 z m 11.136182,0 c -1.769254,-0.0044 -3.207094,1.425238 -3.213636,3.194491 v 0.0109 c -1.09e-4,1.769232 1.433131,3.20426 3.202363,3.205742 1.769254,0.0015 3.20583,-1.430863 3.20801,-3.200116 0.0022,-1.769102 -1.427636,-3.205895 -3.196737,-3.210256 z m 14.490678,0.0011 c -1.775708,0 -3.20463,1.428922 -3.20463,3.204631 0,1.775708 1.428922,3.205742 3.20463,3.205742 h 22.782818 c 1.775708,0 3.205742,-1.430034 3.205742,-3.205742 0,-1.775709 -1.430034,-3.204631 -3.205742,-3.204631 z" /></g></svg>
