<?xml version="1.0" encoding="UTF-8" standalone="no"?>
<!-- Created with Inkscape (http://www.inkscape.org/) -->

<svg
   width="500mm"
   height="500mm"
   viewBox="0 0 500 500"
   version="1.1"
   id="svg1"
   xml:space="preserve"
   xmlns="http://www.w3.org/2000/svg"
   xmlns:svg="http://www.w3.org/2000/svg"><defs
     id="defs1" /><g
     id="layer1"><g
       id="g2"
       transform="translate(-19.328171,-53.109337)"><rect
         style="fill:#3c4253;fill-opacity:1;stroke:#3c4253;stroke-width:5;stroke-linecap:round;stroke-linejoin:round;stroke-dasharray:none;stroke-opacity:1"
         id="rect12-1-9-1-5-2"
         width="495"
         height="365"
         x="21.828171"
         y="120.60934"
         ry="14.89376" /><rect
         style="fill:#cad4f0;fill-opacity:1;stroke:#3c4253;stroke-width:0.999999;stroke-linecap:round;stroke-linejoin:round;stroke-dasharray:none;stroke-opacity:1"
         id="rect28-4"
         width="481.43378"
         height="294.10367"
         x="28.361006"
         y="182.10631"
         ry="13.574018" /><path
         id="rect28-2-0"
         style="fill:#334065;fill-opacity:0.20118;stroke:none;stroke-width:0.999999;stroke-linecap:round;stroke-linejoin:round;stroke-dasharray:none;stroke-opacity:1"
         d="M 56.504982,226.86123 28.361286,243.133 v 219.50329 c 0,7.52003 6.045487,13.57417 13.554746,13.57417 H 295.76904 l 71.4886,-41.33257 -96.86974,-55.62621 167.34437,-96.75511 z" /><g
         id="g15-9-3-81-6"
         transform="matrix(-1.6876032,0,0,1.6900194,142.06443,-886.73818)"
         style="fill:#c9defe;fill-opacity:0.600953;stroke-width:0.592131"><g
           id="g14-0-0-2-2"
           transform="matrix(0.97439039,0,0,0.97439039,-0.62797945,11.03794)"
           style="fill:#c9defe;fill-opacity:0.600953;stroke-width:0.607696"><path
             style="fill:#c9defe;fill-opacity:0.600953;stroke:none;stroke-width:3.03847;stroke-linecap:round;stroke-linejoin:round;stroke-dasharray:none;stroke-opacity:1"
             id="path14-9-4-8-9"
             d="m -5.6140394,619.43988 a 9.453599,9.453599 0 0 1 -9.4458176,9.4536 9.453599,9.453599 0 0 1 -9.461368,-9.43804 9.453599,9.453599 0 0 1 9.430242,-9.46913 9.453599,9.453599 0 0 1 9.4768923,9.42244" /><path
             style="fill:#c9defe;fill-opacity:0.600953;stroke:none;stroke-width:3.03847;stroke-linecap:round;stroke-linejoin:round;stroke-dasharray:none;stroke-opacity:1"
             id="path14-4-1-4-9-9"
             d="m 27.232129,619.43988 a 9.453599,9.453599 0 0 1 -9.445817,9.4536 9.453599,9.453599 0 0 1 -9.461368,-9.43804 9.453599,9.453599 0 0 1 9.430242,-9.46913 9.453599,9.453599 0 0 1 9.476892,9.42244" /><path
             style="fill:#c9defe;fill-opacity:0.600953;stroke:none;stroke-width:3.03847;stroke-linecap:round;stroke-linejoin:round;stroke-dasharray:none;stroke-opacity:1"
             id="path14-6-7-4-3-0"
             d="m 60.078294,619.43988 a 9.453599,9.453599 0 0 1 -9.445818,9.4536 9.453599,9.453599 0 0 1 -9.461367,-9.43804 9.453599,9.453599 0 0 1 9.430241,-9.46913 9.453599,9.453599 0 0 1 9.476893,9.42244" /></g><rect
           style="fill:#c9defe;fill-opacity:0.600953;stroke:none;stroke-width:2.96066;stroke-linecap:round;stroke-linejoin:round;stroke-dasharray:none;stroke-opacity:1"
           id="rect14-7-4-68-8"
           width="127.76682"
           height="18.422993"
           x="-208.43671"
           y="605.40271"
           ry="9.2114964" /></g><g
         id="g1"
         style="display:inline"><path
           style="fill:#ff6d42;fill-opacity:1;stroke:none;stroke-width:2.35035;stroke-linecap:round;stroke-linejoin:round;stroke-dasharray:none;stroke-opacity:1"
           d="m 95.510829,155.64056 c 0,0 -25.068896,0.25202 -37.599543,0 -9.227717,-0.18559 -25.614816,-0.94803 -32.456816,-1.27846 -1.732812,-0.0837 -2.147295,0.84658 -0.865557,2.01609 5.001097,4.56319 17.966376,15.2981 35.972251,22.18019 17.117639,6.54259 35.0929,6.15916 35.0929,6.15916 z"
           id="path19-5-2-1"
           transform="matrix(-2.1258201,0,0,2.1288638,537.74111,-84.555396)" /><path
           id="path19-4-6-1-3"
           style="fill:#00324d;fill-opacity:0.299152;stroke:none;stroke-width:5;stroke-linecap:round;stroke-linejoin:round;stroke-dasharray:none;stroke-opacity:1"
           d="m 487.03458,245.71913 c 0.0157,0.72812 -0.47322,1.63575 -1.56547,2.63376 -10.63143,9.71442 -38.19305,32.56725 -76.4703,47.21827 -36.38903,13.92829 -74.60129,13.11206 -74.60129,13.11206 l 0.15176,-30.85325 c 13.71019,1.61869 40.91,2.84375 74.71361,-5.86744 22.10978,-5.69767 58.65346,-19.06205 77.77167,-26.2434 z" /><path
           style="fill:#b14544;fill-opacity:1;stroke:none;stroke-width:2.35035;stroke-linecap:round;stroke-linejoin:round;stroke-dasharray:none;stroke-opacity:1"
           d="m 230.08898,153.08642 v 4.739 c 0,1.52207 -1.20806,3.0077 -2.69125,3.34944 -12.21365,2.81415 -61.98627,15.62953 -65.47471,38.29935 -2.28446,14.8457 13.66833,24.48678 30.61447,33.06473 -37.68785,9.6904 -71.80744,12.49974 -102.863035,0 7.845112,-4.29761 29.472965,-15.847 27.886435,-29.21601 -0.73368,-6.1824 -12.08823,-10.68757 -17.803633,-12.57592 -1.772817,-0.58573 -3.234968,-2.49558 -3.234968,-4.36309 l 0,-33.29754 z"
           id="path17-9-0-1"
           transform="matrix(-2.1258201,0,0,2.1288638,547.48493,-86.994882)" /><path
           id="path17-9-0-1-1"
           style="fill:#00324d;fill-opacity:0.298039;stroke:none;stroke-width:5;stroke-linecap:round;stroke-linejoin:round;stroke-dasharray:none;stroke-opacity:1"
           d="m 64.078,256.12389 0.002,10e-4 c 25.966454,5.99161 131.76982,33.27309 139.18548,81.53319 1.65446,10.76696 -1.26605,20.22505 -7.16138,28.76871 l 0.0587,0.0488 c 0,0 34.9521,-33.36595 19.84489,-57.73911 C 184.39851,257.74005 64.077981,256.12407 64.077981,256.12407 Z" /><rect
           style="fill:#e35d47;fill-opacity:1;stroke:none;stroke-width:5;stroke-linecap:round;stroke-linejoin:round;stroke-dasharray:none;stroke-opacity:1"
           id="rect22-5-1"
           width="239.67839"
           height="30.150932"
           x="-366.90149"
           y="406.26093"
           ry="3.9640989"
           transform="scale(-1,1)" /><rect
           style="fill:#ff6d42;fill-opacity:1;stroke:none;stroke-width:5;stroke-linecap:round;stroke-linejoin:round;stroke-dasharray:none;stroke-opacity:1"
           id="rect17-2-1-0"
           width="293.06158"
           height="15.093299"
           x="-346.55286"
           y="226.86118"
           ry="3.0186598"
           transform="scale(-1,1)" /><g
           id="g14-0-0-8-9-9-5"
           transform="matrix(-0.42311803,0,0,0.42311803,557.86854,-1423.2491)"
           style="fill:#050506;fill-opacity:0.928406;stroke-width:2.3634" /><g
           id="g14-0-0-2-2-9"
           transform="matrix(-0.42311922,0,0,0.42311922,142.63069,127.13641)"
           style="fill:#c9defe;fill-opacity:1;stroke-width:2.3634" /></g></g></g></svg>
